<svg xmlns="http://www.w3.org/2000/svg" width="115.598" height="139.678" viewBox="0 0 115.598 139.678">
  <g id="Grupo_473" data-name="Grupo 473" transform="translate(-419 -932.828)">
    <g id="award" transform="translate(419 932.828)">
      <g id="Grupo_468" data-name="Grupo 468" transform="translate(0)">
        <g id="Grupo_467" data-name="Grupo 467">
          <path id="Trazado_68" data-name="Trazado 68" d="M155.086,121.344,140.432,102.5a21.211,21.211,0,0,0,11.593-8.583c3.451-5.965,1.89-13.245.381-20.277a55.384,55.384,0,0,1-1.63-11.03,55.366,55.366,0,0,1,1.63-11.039c1.5-7.037,3.071-14.312-.381-20.268-3.574-6.175-10.77-8.46-17.729-10.666a51.575,51.575,0,0,1-10.011-3.921,48.924,48.924,0,0,1-8.022-6.5C111.1,5.426,105.246,0,97.794,0S84.489,5.426,79.323,10.216a48.936,48.936,0,0,1-8.019,6.5A51.561,51.561,0,0,1,61.3,20.631C54.335,22.837,47.14,25.123,43.566,31.3c-3.451,5.965-1.89,13.245-.381,20.277a55.366,55.366,0,0,1,1.628,11.039,55.366,55.366,0,0,1-1.63,11.039c-1.5,7.037-3.071,14.312.381,20.268A21.212,21.212,0,0,0,55.169,102.5L40.5,121.342a2.408,2.408,0,0,0,2.2,3.868l17.219-2.151,4.251,14.873a2.408,2.408,0,0,0,1.857,1.7,2.457,2.457,0,0,0,.458.043,2.408,2.408,0,0,0,1.9-.93l15.379-19.781a22.269,22.269,0,0,0,14.026,6.261,22.269,22.269,0,0,0,14.026-6.261L127.2,138.741a2.408,2.408,0,0,0,1.9.937,2.457,2.457,0,0,0,.458-.043,2.408,2.408,0,0,0,1.857-1.7l4.251-14.871,17.219,2.151a2.408,2.408,0,0,0,2.2-3.868ZM67.5,132.046l-3.514-12.3a2.408,2.408,0,0,0-2.613-1.727l-13.486,1.686,12.087-15.538,1.332.426a51.56,51.56,0,0,1,10,3.911,48.924,48.924,0,0,1,8.022,6.5l.828.766Zm30.3-11.634c-5.563,0-10.242-4.335-15.2-8.93a53.084,53.084,0,0,0-8.884-7.145A55.839,55.839,0,0,0,62.747,100c-6.365-2.021-12.378-3.928-15.018-8.489-2.519-4.356-1.219-10.428.161-16.858A58.974,58.974,0,0,0,49.63,62.614a58.95,58.95,0,0,0-1.736-12.041c-1.38-6.428-2.68-12.5-.161-16.858,2.649-4.561,8.653-6.469,15.018-8.489a55.855,55.855,0,0,0,10.962-4.335,53.082,53.082,0,0,0,8.882-7.145c4.959-4.595,9.638-8.93,15.2-8.93s10.242,4.335,15.2,8.93a53.084,53.084,0,0,0,8.884,7.145,55.839,55.839,0,0,0,10.965,4.335c6.365,2.021,12.378,3.928,15.018,8.489,2.519,4.357,1.219,10.428-.161,16.858a58.974,58.974,0,0,0-1.739,12.041A58.948,58.948,0,0,0,147.7,74.655c1.38,6.428,2.68,12.5.161,16.858-2.649,4.561-8.653,6.469-15.018,8.489a55.855,55.855,0,0,0-10.962,4.335A53.082,53.082,0,0,0,113,111.482C108.037,116.077,103.357,120.412,97.794,120.412Zm36.434-2.389a2.408,2.408,0,0,0-2.613,1.727l-3.526,12.3-12.653-16.268.828-.766a48.937,48.937,0,0,1,8.019-6.5,51.562,51.562,0,0,1,10.009-3.911l1.332-.426,12.089,15.538Z" transform="translate(-39.995)" fill="#19a8f3"/>
        </g>
      </g>
      <g id="Grupo_470" data-name="Grupo 470" transform="translate(14.451 19.266)">
        <g id="Grupo_469" data-name="Grupo 469" transform="translate(0)">
          <path id="Trazado_69" data-name="Trazado 69" d="M131.348,64A43.348,43.348,0,1,0,174.7,107.348,43.348,43.348,0,0,0,131.348,64Zm0,81.88a38.532,38.532,0,1,1,38.532-38.532A38.532,38.532,0,0,1,131.348,145.88Z" transform="translate(-88 -64)" fill="#19a8f3"/>
        </g>
      </g>
      <g id="Grupo_472" data-name="Grupo 472" transform="translate(29.086 33.226)">
        <g id="Grupo_471" data-name="Grupo 471" transform="translate(0)">
          <path id="Trazado_70" data-name="Trazado 70" d="M193.116,129.7a4.816,4.816,0,0,0-3.892-1.982H174.481l-4.576-14.033a4.816,4.816,0,0,0-9.151,0l-4.564,14.033H141.435a4.816,4.816,0,0,0-2.837,8.711l11.935,8.67-4.559,14.033a4.817,4.817,0,0,0,7.413,5.385l11.942-8.667,11.938,8.67a4.816,4.816,0,0,0,7.413-5.385L180.121,145.1l11.935-8.67A4.816,4.816,0,0,0,193.116,129.7Zm-17.243,12.532a2.409,2.409,0,0,0-.874,2.695l5.1,15.7-13.354-9.7a2.408,2.408,0,0,0-2.83,0l-13.354,9.7,5.1-15.7a2.408,2.408,0,0,0-.874-2.692l-13.351-9.7h16.5a2.408,2.408,0,0,0,2.29-1.664l5.1-15.7,5.1,15.694a2.408,2.408,0,0,0,2.29,1.664l16.5,0Z" transform="translate(-136.616 -110.376)" fill="#19a8f3"/>
        </g>
      </g>
    </g>
  </g>
</svg>
