<svg xmlns="http://www.w3.org/2000/svg" width="77.026" height="102.701" viewBox="0 0 77.026 102.701">
  <g id="padlock" transform="translate(-3)">
    <path id="Trazado_67" data-name="Trazado 67" d="M70.4,73.188H12.628A9.64,9.64,0,0,1,3,63.56V18.628A9.64,9.64,0,0,1,12.628,9H70.4a9.64,9.64,0,0,1,9.628,9.628V63.56A9.64,9.64,0,0,1,70.4,73.188ZM12.628,15.419a3.213,3.213,0,0,0-3.209,3.209V63.56a3.213,3.213,0,0,0,3.209,3.209H70.4a3.213,3.213,0,0,0,3.209-3.209V18.628A3.213,3.213,0,0,0,70.4,15.419Z" transform="translate(0 29.513)" fill="#0a2e7c"/>
    <path id="Trazado_68" data-name="Trazado 68" d="M54.141,44.932a3.211,3.211,0,0,1-3.209-3.209V25.675a19.256,19.256,0,0,0-38.513,0V41.722a3.209,3.209,0,1,1-6.419,0V25.675a25.675,25.675,0,0,1,51.35,0V41.722A3.211,3.211,0,0,1,54.141,44.932Z" transform="translate(9.838)" fill="#0a2e7c"/>
    <path id="Trazado_69" data-name="Trazado 69" d="M18.558,30.117a8.558,8.558,0,1,1,8.558-8.558A8.567,8.567,0,0,1,18.558,30.117Zm0-10.7a2.14,2.14,0,1,0,2.14,2.14A2.143,2.143,0,0,0,18.558,19.419Z" transform="translate(22.954 42.63)" fill="#0a2e7c"/>
    <path id="Trazado_70" data-name="Trazado 70" d="M14.459,33.937a3.211,3.211,0,0,1-3.209-3.209V18.959a3.209,3.209,0,0,1,6.419,0V30.727A3.211,3.211,0,0,1,14.459,33.937Z" transform="translate(27.053 51.647)" fill="#0a2e7c"/>
  </g>
</svg>
