<svg id="building" xmlns="http://www.w3.org/2000/svg" width="102.701" height="102.701" viewBox="0 0 102.701 102.701">
  <g id="Grupo_432" data-name="Grupo 432">
    <path id="Trazado_13" data-name="Trazado 13" d="M94.143,99.278V90.414a8.421,8.421,0,0,0,5.135-8.254c0-4.719-3.071-8.558-6.847-8.558s-6.847,3.839-6.847,8.558a8.421,8.421,0,0,0,5.135,8.254v8.863H82.161V46.215a1.712,1.712,0,0,0-.947-1.532L68.467,38.311V29.1a1.711,1.711,0,0,0-1.241-1.647L44.5,20.96V1.712A1.712,1.712,0,0,0,42.792,0H8.558A1.712,1.712,0,0,0,6.847,1.712V99.278H0V102.7H102.7V99.278Zm-53.062,0H10.27V95.854H25.675V92.431H10.27V85.584H25.675V82.161H10.27V75.314H25.675V71.891H10.27V65.044H25.675V61.621H10.27V54.774H25.675V51.35H10.27V44.5H25.675V41.08H10.27V34.234H25.675V30.81H10.27V23.964H25.675V20.54H10.27V13.693H25.675V10.27H10.27V3.423H41.08Zm23.964,0H44.5V95.854H56.486V92.431H44.5V85.584H56.486V82.161H44.5V75.314H56.486V71.891H44.5V65.044H56.486V61.621H44.5V54.774H56.486V51.35H44.5V44.5H56.486V41.08H44.5V34.234H56.486V30.81H44.5V24.522l20.54,5.868Zm13.693,0H68.467V95.854H73.6V92.431H68.467V85.584H73.6V82.161H68.467V75.314H73.6V71.891H68.467V65.044H73.6V61.621H68.467V54.774H73.6V51.35H68.467V42.138l10.27,5.135ZM90.719,86.56a5.981,5.981,0,0,1-1.712-4.4c0-2.783,1.568-5.135,3.423-5.135s3.423,2.352,3.423,5.135a5.991,5.991,0,0,1-1.712,4.4V83.872H90.719Z" fill="#002c81"/>
  </g>
</svg>
