<svg xmlns="http://www.w3.org/2000/svg" width="314.005" height="314.009" viewBox="0 0 314.005 314.009">
  <g id="official-documents" transform="translate(-0.011 114.938) rotate(-30)" opacity="0.096">
    <ellipse id="Elipse_7" data-name="Elipse 7" cx="5.533" cy="4.918" rx="5.533" ry="4.918" transform="translate(90.998 146.697)" fill="#002c81"/>
    <path id="Trazado_57" data-name="Trazado 57" d="M40.013,130.49v17.959a4.49,4.49,0,0,0,4.49,4.49H174.256a4.49,4.49,0,0,0,4.49-4.49V130.49a4.49,4.49,0,0,0-4.49-4.49H44.5A4.49,4.49,0,0,0,40.013,130.49Zm47.591,4.49h82.162v8.98H87.6Zm-38.612,0H78.625v8.98H48.992Z" transform="translate(-22.041 -69.429)" fill="#002c81"/>
    <path id="Trazado_58" data-name="Trazado 58" d="M44.5,214.98H174.256a4.49,4.49,0,0,0,0-8.979H44.5a4.49,4.49,0,1,0,0,8.979Z" transform="translate(-22.041 -113.511)" fill="#002c81"/>
    <path id="Trazado_59" data-name="Trazado 59" d="M44.5,254.98H174.256a4.49,4.49,0,0,0,0-8.98H44.5a4.49,4.49,0,0,0,0,8.98Z" transform="translate(-22.041 -135.552)" fill="#002c81"/>
    <path id="Trazado_60" data-name="Trazado 60" d="M44.5,294.979h74.53a4.49,4.49,0,1,0,0-8.979H44.5a4.49,4.49,0,1,0,0,8.979Z" transform="translate(-22.041 -157.593)" fill="#002c81"/>
    <path id="Trazado_61" data-name="Trazado 61" d="M44.5,334.979h56.571a4.49,4.49,0,1,0,0-8.979H44.5a4.49,4.49,0,1,0,0,8.979Z" transform="translate(-22.041 -179.635)" fill="#002c81"/>
    <path id="Trazado_62" data-name="Trazado 62" d="M130.5,392.938h22.9a22.449,22.449,0,1,0,0-8.979H130.5a4.49,4.49,0,1,0,0,8.979Zm44.9-8.979H162.7a13.469,13.469,0,1,1,0,8.979h12.7a4.49,4.49,0,1,0,0-8.979Z" transform="translate(-69.429 -201.675)" fill="#002c81"/>
    <path id="Trazado_63" data-name="Trazado 63" d="M322.482,68.979a4.49,4.49,0,1,0,0-8.979H313.5a4.49,4.49,0,1,0,0,8.979Z" transform="translate(-170.267 -33.062)" fill="#002c81"/>
    <path id="Trazado_64" data-name="Trazado 64" d="M262.482,68.979a4.49,4.49,0,1,0,0-8.979H253.5a4.49,4.49,0,1,0,0,8.979Z" transform="translate(-137.205 -33.062)" fill="#002c81"/>
    <path id="Trazado_65" data-name="Trazado 65" d="M202.482,68.979a4.49,4.49,0,0,0,0-8.979H193.5a4.49,4.49,0,1,0,0,8.979Z" transform="translate(-104.144 -33.062)" fill="#002c81"/>
    <ellipse id="Elipse_8" data-name="Elipse 8" cx="3.689" cy="4.918" rx="3.689" ry="4.918" transform="translate(83.621 219.239)" fill="#002c81"/>
    <path id="Trazado_66" data-name="Trazado 66" d="M4.5,229.875H67.808a4.49,4.49,0,1,0,0-8.979H8.992V44.9H40.421a4.49,4.49,0,0,0,4.49-4.49V8.979H165.684v126.9c-2.037,2.41-3.938,4.525-5.584,6.213l-9.518-9.518a22.431,22.431,0,0,0-31.749,0l-6.348,6.349a4.49,4.49,0,0,0,0,6.349l53.2,53.2V220.9H108.215a4.49,4.49,0,1,0,0,8.979h61.958a4.49,4.49,0,0,0,4.49-4.49V207.454l1.315,1.315a4.492,4.492,0,0,0,6.35,0l6.349-6.348a22.438,22.438,0,0,0,0-31.748l-9.517-9.517c8.517-8.3,27.25-22.082,37.093-26.369,13.816-6.014,18.8-24.8,7.013-36.586-11.7-11.7-30.4-6.949-36.527,6.907-2.3,5.193-7.058,12.494-12.076,19.336V4.49A4.49,4.49,0,0,0,170.174,0H40.421a4.538,4.538,0,0,0-3.175,1.315L1.328,37.233A4.511,4.511,0,0,0,.013,40.408V225.385a4.49,4.49,0,0,0,4.49,4.49Zm177.824-52.853a13.463,13.463,0,0,1,0,19.049l-3.173,3.174L122.009,142.1l3.175-3.175a13.456,13.456,0,0,1,19.048,0Zm-8.634-36.716c7.781-9.384,17.372-22.784,21.258-31.567,3.49-7.892,14.581-11.578,21.965-4.19s3.634,18.574-4.248,22c-11.172,4.866-30.616,19.216-39.858,28.252l-6.36-6.36c2.129-2.178,4.615-4.97,7.243-8.14ZM35.931,15.329V35.918H15.342Z" transform="translate(0 0)" fill="#002c81"/>
  </g>
</svg>
