<svg xmlns="http://www.w3.org/2000/svg" width="22.305" height="29.211" viewBox="0 0 22.305 29.211">
  <g id="agreement" transform="translate(-10.275 -2)">
    <path id="Trazado_40" data-name="Trazado 40" d="M35.357,28.922H16.174a.417.417,0,0,1-.417-.417V2.417A.417.417,0,0,1,16.174,2H29.432a.417.417,0,0,1,.3.122l5.926,5.921a.417.417,0,0,1,.122.3V28.505a.417.417,0,0,1-.418.417Zm-18.765-.835H34.939V8.51l-5.68-5.675H16.592Z" transform="translate(-3.194 0)" fill="#19a8f3"/>
    <path id="Trazado_41" data-name="Trazado 41" d="M30.332,33.767H10.692a.417.417,0,0,1-.417-.417V6.8a.417.417,0,0,1,.417-.417h2.288a.417.417,0,0,1,0,.835H11.11V32.933h18.8V31.061a.417.417,0,0,1,.835,0V33.35A.417.417,0,0,1,30.332,33.767Z" transform="translate(0 -2.556)" fill="#19a8f3"/>
    <path id="Trazado_42" data-name="Trazado 42" d="M53.868,8.755H47.942a.417.417,0,0,1-.417-.417V2.417a.417.417,0,0,1,.835,0v5.5h5.508a.417.417,0,0,1,0,.835Z" transform="translate(-21.706 0)" fill="#19a8f3"/>
    <path id="Trazado_43" data-name="Trazado 43" d="M36.469,23.464H22.9a.417.417,0,0,1,0-.835h13.57a.417.417,0,0,1,0,.835Z" transform="translate(-7.113 -12.021)" fill="#19a8f3"/>
    <path id="Trazado_44" data-name="Trazado 44" d="M36.469,33.093H22.9a.417.417,0,0,1,0-.835h13.57a.417.417,0,0,1,0,.835Z" transform="translate(-7.113 -17.631)" fill="#19a8f3"/>
    <path id="Trazado_45" data-name="Trazado 45" d="M30.21,13.835H22.9a.417.417,0,0,1,0-.835h7.31a.417.417,0,1,1,0,.835Z" transform="translate(-7.113 -6.41)" fill="#19a8f3"/>
    <path id="Trazado_46" data-name="Trazado 46" d="M33.914,47.8a4.173,4.173,0,1,1,4.173-4.173A4.173,4.173,0,0,1,33.914,47.8Zm0-7.511a3.338,3.338,0,1,0,3.338,3.338A3.338,3.338,0,0,0,33.914,40.293Z" transform="translate(-11.343 -21.827)" fill="#19a8f3"/>
    <path id="Trazado_47" data-name="Trazado 47" d="M36.377,48.877a.414.414,0,0,1-.3-.122l-.876-.876a.417.417,0,1,1,.59-.59l.58.58,1.8-1.8a.417.417,0,1,1,.59.59l-2.1,2.1a.414.414,0,0,1-.3.122Z" transform="translate(-14.456 -25.608)" fill="#19a8f3"/>
  </g>
</svg>
