<svg id="analytics" xmlns="http://www.w3.org/2000/svg" width="24.251" height="24.251" viewBox="0 0 24.251 24.251">
  <g id="Grupo_453" data-name="Grupo 453">
    <g id="Grupo_452" data-name="Grupo 452">
      <path id="Trazado_50" data-name="Trazado 50" d="M2.021,23.443V0H1.213V.808H0v.808H1.213v4.85H0v.808H1.213v4.85H0v.808H1.213v4.85H0v.808H1.213v5.254a.4.4,0,0,0,.4.4H24.251v-.808Z" fill="#19a8f3"/>
    </g>
  </g>
  <g id="Grupo_455" data-name="Grupo 455" transform="translate(3.678 7.599)">
    <g id="Grupo_454" data-name="Grupo 454">
      <path id="Trazado_51" data-name="Trazado 51" d="M90.956,150.4l-.963,4.818-1.1-2.476a.4.4,0,0,0-.687-.089l-1.151,1.441-.978-2.933a.4.4,0,0,0-.374-.276.4.4,0,0,0-.386.259L81.6,160.8l-.8-1.605a.4.4,0,0,0-.677-.072l-1.2,1.5-.947-2.209a.435.435,0,0,0-.378-.246.4.4,0,0,0-.371.254l-1.35,3.375-.781-1.042a.4.4,0,0,0-.687.062L72.8,164.043l.724.361,1.326-2.646.82,1.091a.4.4,0,0,0,.7-.092l1.253-3.136.828,1.932a.4.4,0,0,0,.687.093l1.222-1.528.93,1.859a.413.413,0,0,0,.381.223.4.4,0,0,0,.358-.259l3.638-9.458.856,2.569a.4.4,0,0,0,.7.125l1.2-1.5,1.347,3.031a.4.4,0,0,0,.766-.085l1.213-6.063Z" transform="translate(-72.8 -150.4)" fill="#19a8f3"/>
    </g>
  </g>
  <g id="Grupo_457" data-name="Grupo 457" transform="translate(4.608 1.209)">
    <g id="Grupo_456" data-name="Grupo 456" transform="translate(0 0)">
      <rect id="Rectángulo_4" data-name="Rectángulo 4" width="1" height="1" transform="translate(0.392 0.043)" fill="#19a8f3"/>
    </g>
  </g>
  <g id="Grupo_459" data-name="Grupo 459" transform="translate(6.452 1.209)">
    <g id="Grupo_458" data-name="Grupo 458" transform="translate(0 0)">
      <rect id="Rectángulo_5" data-name="Rectángulo 5" width="5" height="1" transform="translate(-0.452 0.043)" fill="#19a8f3"/>
    </g>
  </g>
  <g id="Grupo_461" data-name="Grupo 461" transform="translate(4.608 3.052)">
    <g id="Grupo_460" data-name="Grupo 460" transform="translate(0 0)">
      <rect id="Rectángulo_6" data-name="Rectángulo 6" width="6" height="1" transform="translate(0.392 0.199)" fill="#19a8f3"/>
    </g>
  </g>
  <g id="Grupo_463" data-name="Grupo 463" transform="translate(4.608 4.896)">
    <g id="Grupo_462" data-name="Grupo 462" transform="translate(0 0)">
      <rect id="Rectángulo_7" data-name="Rectángulo 7" width="6" height="1" transform="translate(0.392 0.356)" fill="#19a8f3"/>
    </g>
  </g>
</svg>
