<svg id="bar-chart" xmlns="http://www.w3.org/2000/svg" width="28.58" height="29.988" viewBox="0 0 28.58 29.988">
  <path id="Trazado_14" data-name="Trazado 14" d="M206.226,216.3l-4.454-4.453a1.379,1.379,0,0,0-1.588-.26l-1.14-1.14a6.079,6.079,0,1,0-.621.621l1.141,1.141a1.38,1.38,0,0,0,.259,1.587l4.454,4.454a1.378,1.378,0,0,0,1.949-1.949Zm-16.968-9.824a5.195,5.195,0,1,1,5.195,5.195A5.2,5.2,0,0,1,189.258,206.477Zm11.187,5.992a.5.5,0,0,1,.707,0l.387.387-.707.707-.387-.387A.5.5,0,0,1,200.445,212.469Zm5.16,5.16a.5.5,0,0,1-.707,0l-3.446-3.446.707-.707,3.446,3.446A.5.5,0,0,1,205.6,217.629Z" transform="translate(-178.05 -188.665)" fill="#19a8f3"/>
  <path id="Trazado_15" data-name="Trazado 15" d="M254.389,232.468a4.189,4.189,0,0,0-2.128.584.439.439,0,1,0,.447.756,3.311,3.311,0,0,1,4.537,4.537.439.439,0,1,0,.757.447,4.19,4.19,0,0,0-3.611-6.324Z" transform="translate(-237.987 -218.852)" fill="#19a8f3"/>
  <path id="Trazado_16" data-name="Trazado 16" d="M226.321,269.268a3.311,3.311,0,0,1-4.537-4.537.439.439,0,1,0-.757-.447,4.19,4.19,0,0,0,5.74,5.74.439.439,0,1,0-.447-.756Z" transform="translate(-208.236 -248.602)" fill="#19a8f3"/>
  <path id="Trazado_17" data-name="Trazado 17" d="M220.882,11.8a.439.439,0,0,0,.439-.439V.909a.03.03,0,0,1,.03-.03h2.817a.03.03,0,0,1,.03.03V10.3a.439.439,0,0,0,.879,0V.909A.91.91,0,0,0,224.169,0h-2.817a.91.91,0,0,0-.909.909V11.365A.439.439,0,0,0,220.882,11.8Z" transform="translate(-208.236 0)" fill="#19a8f3"/>
  <path id="Trazado_18" data-name="Trazado 18" d="M22.353,111.017a.439.439,0,1,0,.879,0v-5.9a.91.91,0,0,0-.909-.909H19.506a.91.91,0,0,0-.909.909v10.36h-1v-4.725a.91.91,0,0,0-.909-.909H13.872a.91.91,0,0,0-.909.909v4.725h-.5a.439.439,0,0,0,0,.879h8.451a.439.439,0,1,0,0-.879H19.476v-10.36a.03.03,0,0,1,.03-.03h2.817a.03.03,0,0,1,.03.03Zm-8.512,4.461v-4.725a.03.03,0,0,1,.03-.03h2.817a.03.03,0,0,1,.03.03v4.725Z" transform="translate(-12.024 -98.106)" fill="#19a8f3"/>
</svg>
