<svg xmlns="http://www.w3.org/2000/svg" width="27.626" height="19.5" viewBox="0 0 27.626 19.5">
  <path id="cash" d="M13.343,84.941c0,.236.1.583.977.875.372.124,1.5.5,1.5,1.607A1.629,1.629,0,0,1,14.584,89v.165a.385.385,0,1,1-.771,0V89a1.629,1.629,0,0,1-1.241-1.58.385.385,0,1,1,.771,0,.856.856,0,1,0,1.711,0c0-.272-.116-.588-.977-.875-1-.333-1.5-.873-1.5-1.607a1.629,1.629,0,0,1,1.241-1.58V83.2a.385.385,0,0,1,.771,0v.165a1.629,1.629,0,0,1,1.241,1.58.385.385,0,0,1-.771,0,.856.856,0,0,0-1.711,0Zm14.282-5.48V92.9a.385.385,0,0,1-.385.385h-.387v2.2a.385.385,0,0,1-.385.385l-.038,0-1.121-.111V98.19a.385.385,0,0,1-.467.377L.308,93.28h0l-.017,0-.013,0-.016-.005-.006,0-.012,0h0l-.014-.006L.21,93.246l0,0h0l-.013-.007-.013-.007-.006,0-.011-.008L.153,93.21.146,93.2.136,93.2l-.009-.008L.118,93.18.11,93.172.1,93.165l-.009-.01-.007-.008-.005-.007-.009-.012-.006-.008,0-.007L.054,93.1l-.006-.009,0-.009-.006-.012-.005-.011,0-.01,0-.01,0-.013,0-.012,0-.008,0-.015,0-.012v-.005c0-.007,0-.013,0-.02s0-.008,0-.012v0c0-.012,0-.023,0-.035V79.46a.385.385,0,0,1,.385-.385H27.241A.385.385,0,0,1,27.626,79.46ZM23.242,92.517A4.024,4.024,0,0,1,26.855,88.9V83.459a4.024,4.024,0,0,1-3.613-3.613H4.384A4.024,4.024,0,0,1,.771,83.459V88.9a4.024,4.024,0,0,1,3.613,3.613Zm-19.633,0A3.252,3.252,0,0,0,.771,89.679v2.838Zm0-12.672H.771v2.838A3.252,3.252,0,0,0,3.609,79.846Zm23.246,0H24.017a3.252,3.252,0,0,0,2.838,2.838ZM24.539,95.688,7.112,93.958l17.427,3.755V95.688Zm1.544-2.4H8.167l17.916,1.779Zm.772-.771V89.679a3.252,3.252,0,0,0-2.838,2.838h2.838Zm-9.016-9.361a.385.385,0,0,0-.094.537,4.331,4.331,0,1,1-1.058-1.058.385.385,0,1,0,.443-.63,5.1,5.1,0,1,0,1.245,1.245A.385.385,0,0,0,17.839,83.156Z" transform="translate(0 -79.075)" fill="#19a8f3"/>
</svg>
