<svg id="coin" xmlns="http://www.w3.org/2000/svg" width="25.335" height="25.335" viewBox="0 0 25.335 25.335">
  <g id="Grupo_435" data-name="Grupo 435">
    <g id="Grupo_434" data-name="Grupo 434">
      <path id="Trazado_31" data-name="Trazado 31" d="M21.625,3.71A12.668,12.668,0,0,0,3.71,21.625,12.668,12.668,0,0,0,21.625,3.71ZM12.668,23.851A11.183,11.183,0,1,1,23.851,12.668,11.2,11.2,0,0,1,12.668,23.851Z" fill="#19a8f3"/>
    </g>
  </g>
  <g id="Grupo_437" data-name="Grupo 437" transform="translate(8.745 4.77)">
    <g id="Grupo_436" data-name="Grupo 436">
      <path id="Trazado_32" data-name="Trazado 32" d="M181.451,103.556h-1.59a1.643,1.643,0,1,1,0-3.286h3.18a.742.742,0,1,0,0-1.484H181.4V97.143a.742.742,0,1,0-1.484,0v1.643h-.053a3.127,3.127,0,1,0,0,6.255h1.59a1.643,1.643,0,0,1,0,3.286h-3.18a.742.742,0,0,0,0,1.484h1.643v1.643a.742.742,0,0,0,1.484,0v-1.643h.053a3.127,3.127,0,0,0,0-6.255Z" transform="translate(-176.734 -96.401)" fill="#19a8f3"/>
    </g>
  </g>
</svg>
