<svg xmlns="http://www.w3.org/2000/svg" width="18.695" height="29.518" viewBox="0 0 18.695 29.518">
  <g id="hourglass" transform="translate(-93.867)">
    <g id="Grupo_439" data-name="Grupo 439" transform="translate(93.867)">
      <g id="Grupo_438" data-name="Grupo 438">
        <path id="Trazado_33" data-name="Trazado 33" d="M111.086,0H95.343a1.476,1.476,0,1,0,0,2.952h15.743a1.476,1.476,0,1,0,0-2.952Zm0,1.968H95.343a.492.492,0,1,1,0-.984h15.743a.492.492,0,1,1,0,.984Z" transform="translate(-93.867)" fill="#19a8f3"/>
      </g>
    </g>
    <g id="Grupo_441" data-name="Grupo 441" transform="translate(93.867 26.566)">
      <g id="Grupo_440" data-name="Grupo 440">
        <path id="Trazado_34" data-name="Trazado 34" d="M111.086,460.8H95.343a1.476,1.476,0,0,0,0,2.952h15.743a1.476,1.476,0,1,0,0-2.952Zm0,1.968H95.343a.492.492,0,0,1,0-.984h15.743a.492.492,0,1,1,0,.984Z" transform="translate(-93.867 -460.8)" fill="#19a8f3"/>
      </g>
    </g>
    <g id="Grupo_443" data-name="Grupo 443" transform="translate(95.835 1.968)">
      <g id="Grupo_442" data-name="Grupo 442">
        <path id="Trazado_35" data-name="Trazado 35" d="M138.885,45.1a13.139,13.139,0,0,0,3.874-9.352V34.626a.492.492,0,0,0-.492-.492H128.492a.492.492,0,0,0-.492.492v1.121a13.139,13.139,0,0,0,3.873,9.352l.494.494a1.883,1.883,0,0,1,0,2.664l-.494.494A13.138,13.138,0,0,0,128,58.1v1.121a.492.492,0,0,0,.492.492h13.775a.492.492,0,0,0,.492-.492V58.1a13.139,13.139,0,0,0-3.874-9.352l-.494-.494a1.884,1.884,0,0,1,0-2.664Zm-1.19-.2a2.867,2.867,0,0,0,0,4.055l.494.494a12.161,12.161,0,0,1,3.585,8.656v.629H128.984V58.1a12.162,12.162,0,0,1,3.585-8.656l.494-.494a2.867,2.867,0,0,0,0-4.055l-.494-.494a12.162,12.162,0,0,1-3.585-8.656v-.629h12.791v.629A12.162,12.162,0,0,1,138.19,44.4Z" transform="translate(-128 -34.134)" fill="#19a8f3"/>
      </g>
    </g>
    <g id="Grupo_445" data-name="Grupo 445" transform="translate(99.279 6.593)">
      <g id="Grupo_444" data-name="Grupo 444">
        <path id="Trazado_36" data-name="Trazado 36" d="M195.834,116.057a.7.7,0,0,0-.714-.417c-2.556,0-3.7-.548-4.147-.874a2.1,2.1,0,0,0-1.935-.285,1.939,1.939,0,0,0-1.244,1.336,1.6,1.6,0,0,0-.052.27.519.519,0,0,0,.062.287,10.936,10.936,0,0,0,1.758,2.445l.494.494a3.823,3.823,0,0,1,1.128,2.723.492.492,0,1,0,.984,0,3.826,3.826,0,0,1,1.128-2.723l.495-.495c.122-.121.28-.271.454-.434C195.517,117.188,196.051,116.606,195.834,116.057Zm-2.264,1.61c-.182.172-.348.328-.475.455l-.495.495a4.833,4.833,0,0,0-.924,1.288,4.83,4.83,0,0,0-.924-1.288l-.494-.494a9.437,9.437,0,0,1-1.506-2.073.961.961,0,0,1,.615-.642,1.119,1.119,0,0,1,1.03.154,7.522,7.522,0,0,0,4.23,1.054C194.322,116.96,193.845,117.409,193.57,117.667Z" transform="translate(-187.741 -114.362)" fill="#19a8f3"/>
      </g>
    </g>
    <g id="Grupo_447" data-name="Grupo 447" transform="translate(97.835 20.662)">
      <g id="Grupo_446" data-name="Grupo 446">
        <path id="Trazado_37" data-name="Trazado 37" d="M173.452,362.789a4.264,4.264,0,0,0-1.5-3.025c-.1-.1-.2-.212-.311-.326a3.292,3.292,0,0,0-2.4-1.039h-2.337a3.293,3.293,0,0,0-2.4,1.039c-.107.114-.211.221-.31.325a4.261,4.261,0,0,0-1.5,3.026.491.491,0,0,0,.49.53h9.774a.492.492,0,0,0,.491-.53Zm-9.7-.454a3.42,3.42,0,0,1,1.161-1.888c.1-.107.211-.219.321-.337a2.3,2.3,0,0,1,1.677-.727h2.337a2.306,2.306,0,0,1,1.677.727c.111.119.218.23.322.337a3.425,3.425,0,0,1,1.16,1.888Z" transform="translate(-162.696 -358.4)" fill="#19a8f3"/>
      </g>
    </g>
    <g id="Grupo_449" data-name="Grupo 449" transform="translate(102.708 15.743)">
      <g id="Grupo_448" data-name="Grupo 448">
        <path id="Trazado_38" data-name="Trazado 38" d="M247.7,273.067a.492.492,0,0,0-.492.492v.492a.492.492,0,1,0,.984,0v-.492A.492.492,0,0,0,247.7,273.067Z" transform="translate(-247.211 -273.067)" fill="#19a8f3"/>
      </g>
    </g>
    <g id="Grupo_451" data-name="Grupo 451" transform="translate(102.708 18.203)">
      <g id="Grupo_450" data-name="Grupo 450">
        <path id="Trazado_39" data-name="Trazado 39" d="M247.7,315.733a.492.492,0,0,0-.492.492v.492a.492.492,0,0,0,.984,0v-.492A.492.492,0,0,0,247.7,315.733Z" transform="translate(-247.211 -315.733)" fill="#19a8f3"/>
      </g>
    </g>
  </g>
</svg>
