<svg xmlns="http://www.w3.org/2000/svg" width="27.003" height="27.004" viewBox="0 0 27.003 27.004">
  <g id="pay" transform="translate(-8.008 -7.998)">
    <circle id="Elipse_1" data-name="Elipse 1" cx="0.5" cy="0.5" r="0.5" transform="translate(21.008 9.998)" fill="#19a8f3"/>
    <circle id="Elipse_2" data-name="Elipse 2" cx="0.5" cy="0.5" r="0.5" transform="translate(21.008 31.998)" fill="#19a8f3"/>
    <circle id="Elipse_3" data-name="Elipse 3" cx="0.5" cy="0.5" r="0.5" transform="translate(10.008 20.998)" fill="#19a8f3"/>
    <path id="Trazado_52" data-name="Trazado 52" d="M32.833,19.322A2.181,2.181,0,0,0,30.7,21.064H29.337a7.809,7.809,0,0,0-1.987-4.789l.966-.966a2.176,2.176,0,1,0-.616-.616l-.966.966a7.809,7.809,0,0,0-4.789-1.987V12.31a2.178,2.178,0,1,0-.871,0v1.363a7.809,7.809,0,0,0-4.789,1.987l-.966-.966a2.176,2.176,0,1,0-.616.616l.966.966a7.809,7.809,0,0,0-1.987,4.789H12.32a2.178,2.178,0,1,0,0,.871h1.363a7.809,7.809,0,0,0,1.987,4.789l-.966.966a2.176,2.176,0,1,0,.616.616l.966-.966a7.809,7.809,0,0,0,4.789,1.987V30.69a2.178,2.178,0,1,0,.871,0V29.327a7.809,7.809,0,0,0,4.789-1.987l.966.966a2.177,2.177,0,1,0,.616-.616l-.966-.966a7.809,7.809,0,0,0,1.987-4.789H30.7a2.178,2.178,0,1,0,2.134-2.613Zm-4.241-6.754a1.307,1.307,0,1,1-.383.924,1.307,1.307,0,0,1,.383-.924ZM14.426,14.416a1.307,1.307,0,1,1,.383-.924,1.307,1.307,0,0,1-.383.924Zm-4.241,8.39A1.307,1.307,0,1,1,11.492,21.5,1.307,1.307,0,0,1,10.185,22.807Zm4.241,7.625a1.307,1.307,0,1,1,.383-.924A1.307,1.307,0,0,1,14.426,30.431Zm14.167-1.848a1.311,1.311,0,1,1-.383.924,1.311,1.311,0,0,1,.383-.924ZM20.2,10.176a1.307,1.307,0,1,1,1.307,1.307A1.307,1.307,0,0,1,20.2,10.176Zm2.613,22.648a1.307,1.307,0,1,1-1.307-1.307,1.307,1.307,0,0,1,1.307,1.307Zm-1.307-4.355A6.969,6.969,0,1,1,28.478,21.5,6.969,6.969,0,0,1,21.509,28.469Zm11.324-5.662A1.307,1.307,0,1,1,34.14,21.5,1.307,1.307,0,0,1,32.833,22.807Z" fill="#19a8f3"/>
    <circle id="Elipse_4" data-name="Elipse 4" cx="0.5" cy="0.5" r="0.5" transform="translate(32.008 20.998)" fill="#19a8f3"/>
    <path id="Trazado_53" data-name="Trazado 53" d="M101.05,101.049a.436.436,0,1,0,.616,0A.436.436,0,0,0,101.05,101.049Z" transform="translate(-87.855 -87.865)" fill="#19a8f3"/>
    <circle id="Elipse_5" data-name="Elipse 5" cx="0.436" cy="0.436" r="0.436" transform="translate(29.081 29.072)" fill="#19a8f3"/>
    <circle id="Elipse_6" data-name="Elipse 6" cx="0.436" cy="0.436" r="0.436" transform="translate(13.067 29.072)" fill="#19a8f3"/>
    <path id="Trazado_54" data-name="Trazado 54" d="M395.822,101.666a.436.436,0,1,0-.616,0A.436.436,0,0,0,395.822,101.666Z" transform="translate(-365.997 -87.865)" fill="#19a8f3"/>
    <path id="Trazado_55" data-name="Trazado 55" d="M172.791,168a4.791,4.791,0,1,0,4.791,4.791A4.791,4.791,0,0,0,172.791,168Zm0,8.711a3.92,3.92,0,1,1,3.92-3.92A3.92,3.92,0,0,1,172.791,176.711Z" transform="translate(-151.281 -151.291)" fill="#19a8f3"/>
    <path id="Trazado_56" data-name="Trazado 56" d="M227.484,211.484a1.308,1.308,0,0,1-1.307,1.307.436.436,0,0,1-.871,0h-.871a.436.436,0,0,1,0-.871h1.742a.436.436,0,0,0,.436-.436.484.484,0,0,0-.49-.436h-.817a1.307,1.307,0,0,1,0-2.613.436.436,0,0,1,.871,0h.871a.436.436,0,0,1,0,.871h-1.742a.436.436,0,0,0,0,.871h.817A1.353,1.353,0,0,1,227.484,211.484Z" transform="translate(-204.233 -189.113)" fill="#19a8f3"/>
  </g>
</svg>
