<svg xmlns="http://www.w3.org/2000/svg" width="29.251" height="19.742" viewBox="0 0 29.251 19.742">
  <g id="stack-of-coins" transform="translate(0 -58.007)">
    <path id="Trazado_48" data-name="Trazado 48" d="M21.713,58.007c-4.227,0-7.539,1.755-7.539,3.995v.685a7.483,7.483,0,0,0-2.6.633,13.009,13.009,0,0,0-4.034-.6C3.311,62.717,0,64.472,0,66.712v7.043c0,2.24,3.311,3.995,7.538,3.995a12.963,12.963,0,0,0,4.092-.621,7.531,7.531,0,0,0,5.99,0,12.962,12.962,0,0,0,4.092.621c4.227,0,7.538-1.755,7.538-3.995V62C29.251,59.762,25.94,58.007,21.713,58.007ZM16.9,59.9a11.023,11.023,0,0,1,4.81-.99,11.02,11.02,0,0,1,4.809.99c1.161.58,1.826,1.347,1.826,2.1s-.666,1.522-1.826,2.1a11.018,11.018,0,0,1-4.809.99,13.562,13.562,0,0,1-1.65-.1,7.522,7.522,0,0,0-4.8-2.3,1.482,1.482,0,0,1-.186-.7C15.077,61.246,15.743,60.48,16.9,59.9ZM14.626,76.847a6.618,6.618,0,0,1-4.409-1.681A6.672,6.672,0,0,1,8.605,73a6.593,6.593,0,0,1-.6-2.3q-.018-.242-.018-.488c0-.139,0-.277.013-.414a6.63,6.63,0,0,1,6.172-6.207c.149-.01.3-.016.451-.016l.137,0q.158,0,.314.014A6.592,6.592,0,0,1,18.169,64.6a6.679,6.679,0,0,1,2.461,2.783,6.587,6.587,0,0,1,.619,2.412c.008.137.013.275.013.414q0,.246-.018.488a6.59,6.59,0,0,1-.6,2.3,6.631,6.631,0,0,1-6.021,3.846ZM2.729,64.609a11.022,11.022,0,0,1,4.81-.99,12.818,12.818,0,0,1,2.908.321A7.541,7.541,0,0,0,7.1,69.8a10.726,10.726,0,0,1-4.37-.983C1.568,68.234.9,67.467.9,66.712S1.568,65.19,2.729,64.609ZM7.1,70.7a7.509,7.509,0,0,0,.233,1.436,10.89,10.89,0,0,1-4.608-.989C1.568,70.567.9,69.8.9,69.045v-.409C2.1,69.817,4.391,70.622,7.1,70.7Zm.435,2.339h.1a7.533,7.533,0,0,0,.783,1.448q-.435.028-.883.028a11.02,11.02,0,0,1-4.81-.99C1.568,72.944.9,72.178.9,71.422v-.453C2.166,72.212,4.636,73.039,7.538,73.039Zm0,3.808a11.019,11.019,0,0,1-4.81-.99C1.568,75.277.9,74.51.9,73.755v-.409c1.264,1.244,3.734,2.071,6.636,2.071A14.6,14.6,0,0,0,9.1,75.334a7.588,7.588,0,0,0,1.395,1.18A12.778,12.778,0,0,1,7.538,76.847Zm20.811-3.093c0,.756-.666,1.522-1.826,2.1a11.017,11.017,0,0,1-4.809.99,12.776,12.776,0,0,1-2.957-.333,7.6,7.6,0,0,0,1.395-1.18,14.6,14.6,0,0,0,1.563.083c2.9,0,5.372-.827,6.636-2.071Zm0-2.333c0,.756-.666,1.522-1.826,2.1a11.018,11.018,0,0,1-4.809.99q-.447,0-.882-.028a7.528,7.528,0,0,0,.783-1.448h.1c2.9,0,5.372-.827,6.636-2.071v.453Zm0-2.377c0,.756-.666,1.522-1.826,2.1a10.885,10.885,0,0,1-4.608.989,7.5,7.5,0,0,0,.233-1.436c2.713-.078,5-.883,6.2-2.064Zm0-2.333c0,.756-.666,1.522-1.826,2.1a10.725,10.725,0,0,1-4.37.983,7.5,7.5,0,0,0-.227-1.47c2.81-.039,5.191-.856,6.423-2.069Zm0-2.377c0,.756-.666,1.522-1.826,2.1a11.019,11.019,0,0,1-4.809.99h-.082a7.523,7.523,0,0,0-.775-1.455q.421.024.857.025c2.9,0,5.372-.827,6.636-2.071Z" transform="translate(0 0)" fill="#19a8f3"/>
    <path id="Trazado_49" data-name="Trazado 49" d="M148.066,147.253a2.1,2.1,0,0,0-.182-.852,2.87,2.87,0,0,0-2.113-1.556c-.077-.015-.154-.028-.233-.038v-3.131a1.748,1.748,0,0,1,1.625,1.533.451.451,0,1,0,.9,0A2.071,2.071,0,0,0,148,142.7a2.813,2.813,0,0,0-2.463-1.936v-.588a.451.451,0,0,0-.809-.274l-.019.026a.449.449,0,0,0-.074.248v.588c-.108.014-.214.032-.317.056a2.606,2.606,0,0,0-2.209,2.389,2.092,2.092,0,0,0,.185.858,2.428,2.428,0,0,0,.538.754,3.016,3.016,0,0,0,1.043.645,3.419,3.419,0,0,0,.761.187v3.132h0a2.575,2.575,0,0,1-.372-.091,2.1,2.1,0,0,1-.841-.5,1.333,1.333,0,0,1-.412-.938.451.451,0,1,0-.9,0c0,.06,0,.118.008.177a2.2,2.2,0,0,0,.5,1.206,2.79,2.79,0,0,0,.751.635,3.272,3.272,0,0,0,.975.376c.1.02.192.037.291.049v.589a.451.451,0,0,0,.9,0V149.7q.148-.019.291-.049a3.273,3.273,0,0,0,.975-.376,2.788,2.788,0,0,0,.751-.635,2.2,2.2,0,0,0,.5-1.206C148.063,147.372,148.066,147.313,148.066,147.253Zm-3.588-2.543a2.316,2.316,0,0,1-.78-.335,1.6,1.6,0,0,1-.593-.7,1.218,1.218,0,0,1-.094-.467,1.747,1.747,0,0,1,1.623-1.533h0v3.065C144.583,144.733,144.53,144.723,144.478,144.711Zm2.686,2.543a1.333,1.333,0,0,1-.412.938,2.1,2.1,0,0,1-.841.5,2.546,2.546,0,0,1-.372.091h0V145.72a1.827,1.827,0,0,1,1.61,1.346A1.207,1.207,0,0,1,147.164,147.253Z" transform="translate(-130.462 -75.021)" fill="#19a8f3"/>
  </g>
</svg>
