<svg id="XMLID_948_" xmlns="http://www.w3.org/2000/svg" width="24.847" height="24.847" viewBox="0 0 24.847 24.847">
  <g id="XMLID_1067_" transform="translate(0 0)">
    <path id="XMLID_1282_" d="M6.988,13.976A6.988,6.988,0,1,0,0,6.988,7,7,0,0,0,6.988,13.976Zm0-13.006A6.018,6.018,0,1,1,.971,6.988,6.024,6.024,0,0,1,6.988.971Z" transform="translate(0 0)" fill="#19a8f3"/>
    <path id="XMLID_1306_" d="M107.485,83.6a.485.485,0,0,0,.649-.225l2.67-5.5a.485.485,0,1,0-.873-.424l-2.67,5.5a.485.485,0,0,0,.225.649Z" transform="translate(-102.009 -73.435)" fill="#19a8f3"/>
    <path id="XMLID_1329_" d="M65.64,66.305a1.553,1.553,0,1,0-1.553-1.553A1.555,1.555,0,0,0,65.64,66.305Zm0-2.136a.583.583,0,1,1-.583.583A.583.583,0,0,1,65.64,64.17Z" transform="translate(-60.977 -60.132)" fill="#19a8f3"/>
    <path id="XMLID_1332_" d="M161.681,162.345a1.553,1.553,0,1,0,1.553-1.553A1.555,1.555,0,0,0,161.681,162.345Zm1.553-.583a.583.583,0,1,1-.583.583A.583.583,0,0,1,163.234,161.763Z" transform="translate(-153.835 -152.989)" fill="#19a8f3"/>
    <path id="XMLID_1336_" d="M24.361,120.854H22.905v-5.335a.485.485,0,0,0-.971,0v5.335H17.859v-13.98a.485.485,0,0,0-.485-.485H16.6L19.9,103.1l3.293,3.293h-.77a.485.485,0,0,0-.485.485v4.278a.485.485,0,1,0,.971,0v-3.792h1.456a.485.485,0,0,0,.343-.828l-4.465-4.465a.485.485,0,0,0-.686,0l-4.465,4.465a.485.485,0,0,0,.343.828h1.456v13.495H15.432v-8.468a.485.485,0,0,0-.485-.485H9.9a.485.485,0,0,0-.485.485v8.468H7.959v-5.241a.485.485,0,0,0-.485-.485H2.426a.485.485,0,0,0-.485.485v5.241H.485a.485.485,0,1,0,0,.971H24.361a.485.485,0,1,0,0-.971Zm-21.45,0V116.1H6.988v4.756Zm7.473,0v-7.983h4.076v7.983Z" transform="translate(0 -96.978)" fill="#19a8f3"/>
    <path id="XMLID_1361_" d="M452.515,327.07a.486.486,0,1,0,.343.142A.489.489,0,0,0,452.515,327.07Z" transform="translate(-430.094 -311.198)" fill="#19a8f3"/>
  </g>
</svg>
